<svg width="145" height="81" viewBox="0 0 145 81" fill="none" xmlns="http://www.w3.org/2000/svg">
<path d="M5.79091 10.763C9.30169 10.6173 11.8716 11.3507 13.3774 14.8252C13.636 15.5966 13.7509 16.8094 13.7522 17.5987C13.7756 32.741 13.8249 47.8865 13.7565 63.0284C13.7495 64.5733 13.4945 65.543 12.6174 66.8202C11.487 68.4664 9.96737 69.2156 8.04449 69.5573C6.5664 69.5893 5.37301 69.5708 3.97211 69.0205C2.34013 68.3726 1.04728 67.0809 0.398152 65.4494C0.157852 64.8525 0.0362751 63.3569 0.0340472 62.7082C-0.0159226 47.9105 0.00221905 33.1072 0.00794807 18.3093C0.00874376 16.2279 0.0141553 14.8749 1.3635 13.1571C2.57932 11.6092 3.88824 11.0073 5.79091 10.763Z" fill="#6BC799"/>
<path d="M23.0009 0.0966776C24.6945 0.0317487 26.4872 0.0799673 28.179 0.0403416C30.7471 -0.0199722 33.434 0.0455928 35.3674 1.97739C36.1206 2.72996 37.2427 4.34014 37.3493 5.38903C37.6353 8.20054 37.5183 11.711 37.5161 14.5461L37.5203 35.2089C38.2903 33.6307 40.1597 31.2637 41.893 30.9712C45.4377 30.3731 50.5494 30.6266 54.113 30.6269L73.1085 30.6309L90.9067 30.6242C94.2041 30.6225 97.503 30.5924 100.799 30.6634C102.475 30.6995 103.996 31.4032 105.189 32.5649C106.143 33.4934 106.528 34.3395 106.969 35.5724C106.663 30.2958 106.997 23.5322 106.889 18.0915C106.84 15.5999 106.728 8.41713 106.951 6.31315C107.04 5.44727 107.306 4.60908 107.736 3.8519C108.522 2.43444 110.234 0.671815 111.876 0.408439C115.115 -0.0333321 121.511 -0.443119 124.361 1.04054C128.701 3.29825 127.716 9.58696 127.717 13.8166L127.712 31.3668L127.704 59.5532C127.704 64.2568 127.736 68.9908 127.684 73.6937C127.647 76.9322 125.395 79.3655 122.286 80.1293C121.334 80.263 119.221 80.3044 118.237 80.2757C115.074 80.1818 111.375 80.863 109.022 78.2976C108.25 77.5179 107.16 75.893 107.048 74.7647C106.744 71.7013 106.873 68.3182 106.878 65.2313L106.887 45.3518C106.221 47.1106 105.263 48.3107 103.573 49.2065C101.976 50.0518 100.471 49.9963 98.7204 50.0089C96.6357 50.024 94.5478 50.0157 92.4615 50.0167L77.6838 50.0171L54.7408 50.0257C50.8971 50.0267 46.4067 50.1739 42.5722 49.8535C40.487 49.6793 38.4147 47.2228 37.5113 45.4013C37.3693 55.1344 37.7209 65.0198 37.3805 74.7552C37.3541 75.5063 37.1026 76.0681 36.7401 76.7031C34.7852 79.9225 32.4562 80.3473 29.0438 80.2741C24.2924 80.2821 18.7505 81.0523 16.993 75.301C16.5622 73.8911 16.7644 69.3594 16.7608 67.6924L16.7304 51.4968L16.6869 22.223C16.6763 17.1046 16.6008 11.9616 16.7353 6.84833C16.8351 3.05349 19.4552 0.776839 23.0009 0.0966776Z" fill="#6BC799"/>
<path d="M136.523 10.7495C139.763 10.629 143.437 11.5492 144.263 15.4476C144.698 17.4965 144.469 20.9977 144.467 23.1803L144.461 36.8552L144.462 54.6572C144.461 57.7297 144.585 61.0304 144.376 64.0744C144.174 67.0411 141.44 69.0703 138.732 69.5669C129.603 69.8006 130.719 63.5946 130.721 56.7794L130.73 43.1834L130.716 26.0842C130.711 22.9408 130.646 19.8017 130.797 16.6628C130.954 13.361 133.343 11.1894 136.523 10.7495Z" fill="#6BC799"/>
</svg>
